<svg viewBox="0 0 24 24" fill="none" xmlns="http://www.w3.org/2000/svg">
<path fill-rule="evenodd" clip-rule="evenodd" d="M17.0371 8.0392C17.33 7.7463 17.33 7.27143 17.0371 6.97853C16.7442 6.68564 16.2693 6.68564 15.9764 6.97854L11.9998 10.9551L8.02364 6.9789C7.73074 6.68601 7.25587 6.68601 6.96298 6.9789C6.67008 7.2718 6.67008 7.74667 6.96298 8.03956L10.9392 12.0158L6.96316 15.9918C6.67026 16.2847 6.67027 16.7596 6.96316 17.0525C7.25605 17.3454 7.73092 17.3454 8.02382 17.0525L11.9998 13.0764L15.9762 17.0528C16.2691 17.3457 16.744 17.3457 17.0369 17.0528C17.3298 16.7599 17.3298 16.2851 17.0369 15.9922L13.0605 12.0158L17.0371 8.0392Z" fill="currentColor"/>
</svg>
